<svg width="66" height="14" viewBox="0 0 66 14" fill="none" xmlns="http://www.w3.org/2000/svg">
<path d="M10.5 1.16663H8.75C7.97645 1.16663 7.23458 1.47392 6.6876 2.0209C6.14062 2.56788 5.83333 3.30974 5.83333 4.08329V5.83329H4.08333V8.16663H5.83333V12.8333H8.16666V8.16663H9.91666L10.5 5.83329H8.16666V4.08329C8.16666 3.92858 8.22812 3.78021 8.33752 3.67081C8.44692 3.56142 8.59529 3.49996 8.75 3.49996H10.5V1.16663Z" fill="#101010"/>
<path d="M35.3333 4.66663C36.2616 4.66663 37.1518 5.03538 37.8082 5.69175C38.4646 6.34813 38.8333 7.23837 38.8333 8.16663V12.25H36.5V8.16663C36.5 7.85721 36.3771 7.56046 36.1583 7.34167C35.9395 7.12288 35.6428 6.99996 35.3333 6.99996C35.0239 6.99996 34.7272 7.12288 34.5084 7.34167C34.2896 7.56046 34.1667 7.85721 34.1667 8.16663V12.25H31.8333V8.16663C31.8333 7.23837 32.2021 6.34813 32.8585 5.69175C33.5148 5.03538 34.4051 4.66663 35.3333 4.66663Z" fill="#101010"/>
<path d="M27.1667 5.25H29.5V12.25H27.1667V5.25Z" fill="#101010"/>
<path d="M28.3333 3.49996C28.9777 3.49996 29.5 2.97763 29.5 2.33329C29.5 1.68896 28.9777 1.16663 28.3333 1.16663C27.689 1.16663 27.1667 1.68896 27.1667 2.33329C27.1667 2.97763 27.689 3.49996 28.3333 3.49996Z" fill="#101010"/>
<path d="M65.4167 1.75001C64.8581 2.14403 64.2396 2.4454 63.585 2.64251C63.2337 2.23855 62.7668 1.95224 62.2474 1.8223C61.7281 1.69235 61.1814 1.72504 60.6812 1.91594C60.1811 2.10684 59.7516 2.44674 59.4509 2.88967C59.1502 3.33261 58.9928 3.8572 59 4.39251V4.97584C57.9749 5.00242 56.9591 4.77506 56.0431 4.31402C55.1271 3.85297 54.3394 3.17254 53.75 2.33334C53.75 2.33334 51.4167 7.58334 56.6667 9.91667C55.4653 10.7322 54.0342 11.141 52.5833 11.0833C57.8333 14 64.25 11.0833 64.25 4.37501C64.2495 4.21252 64.2338 4.05044 64.2033 3.89084C64.7987 3.30371 65.2188 2.56242 65.4167 1.75001Z" fill="#101010"/>
</svg>
